<mxfile host="app.diagrams.net" agent="Mozilla/5.0 (Windows NT 10.0; Win64; x64) AppleWebKit/537.36 (KHTML, like Gecko) Chrome/134.0.0.0 Safari/537.36" version="26.1.1">
  <diagram name="Page-1" id="IHZGnA4hw4uUt2ZQnYIH">
    <mxGraphModel dx="1050" dy="522" grid="1" gridSize="10" guides="1" tooltips="1" connect="1" arrows="1" fold="1" page="1" pageScale="1" pageWidth="850" pageHeight="1100" math="0" shadow="0">
      <root>
        <mxCell id="0" />
        <mxCell id="1" parent="0" />
        <mxCell id="UU7Y9kC62denOVBIXpYy-2" value="" style="rounded=0;whiteSpace=wrap;html=1;direction=south;fillColor=none;" parent="1" vertex="1">
          <mxGeometry x="170" y="40" width="150" height="360" as="geometry" />
        </mxCell>
        <mxCell id="UU7Y9kC62denOVBIXpYy-3" value="" style="image;aspect=fixed;html=1;points=[];align=center;fontSize=12;image=img/lib/azure2/general/Folder_Blank.svg;" parent="1" vertex="1">
          <mxGeometry x="211" y="110" width="69" height="56.00000000000001" as="geometry" />
        </mxCell>
        <mxCell id="UU7Y9kC62denOVBIXpYy-4" value="" style="image;aspect=fixed;html=1;points=[];align=center;fontSize=12;image=img/lib/azure2/general/Folder_Blank.svg;" parent="1" vertex="1">
          <mxGeometry x="211" y="270" width="69" height="56.00000000000001" as="geometry" />
        </mxCell>
        <mxCell id="UU7Y9kC62denOVBIXpYy-29" style="edgeStyle=orthogonalEdgeStyle;rounded=0;orthogonalLoop=1;jettySize=auto;html=1;exitX=0.948;exitY=0.429;exitDx=0;exitDy=0;entryX=0;entryY=0.5;entryDx=0;entryDy=0;exitPerimeter=0;" parent="1" source="UU7Y9kC62denOVBIXpYy-4" target="UU7Y9kC62denOVBIXpYy-26" edge="1">
          <mxGeometry relative="1" as="geometry" />
        </mxCell>
        <mxCell id="UU7Y9kC62denOVBIXpYy-30" style="edgeStyle=orthogonalEdgeStyle;rounded=0;orthogonalLoop=1;jettySize=auto;html=1;exitX=0.936;exitY=0.443;exitDx=0;exitDy=0;entryX=0;entryY=0.5;entryDx=0;entryDy=0;exitPerimeter=0;" parent="1" source="UU7Y9kC62denOVBIXpYy-4" target="UU7Y9kC62denOVBIXpYy-27" edge="1">
          <mxGeometry relative="1" as="geometry" />
        </mxCell>
        <mxCell id="UU7Y9kC62denOVBIXpYy-31" style="edgeStyle=orthogonalEdgeStyle;rounded=0;orthogonalLoop=1;jettySize=auto;html=1;exitX=0.925;exitY=0.457;exitDx=0;exitDy=0;entryX=0;entryY=0.5;entryDx=0;entryDy=0;exitPerimeter=0;" parent="1" source="UU7Y9kC62denOVBIXpYy-4" target="UU7Y9kC62denOVBIXpYy-28" edge="1">
          <mxGeometry relative="1" as="geometry" />
        </mxCell>
        <mxCell id="UU7Y9kC62denOVBIXpYy-5" value="ERP" style="text;html=1;align=center;verticalAlign=middle;whiteSpace=wrap;rounded=0;" parent="1" vertex="1">
          <mxGeometry x="215" y="326" width="60" height="30" as="geometry" />
        </mxCell>
        <mxCell id="UU7Y9kC62denOVBIXpYy-22" style="edgeStyle=orthogonalEdgeStyle;rounded=0;orthogonalLoop=1;jettySize=auto;html=1;entryX=0;entryY=0.5;entryDx=0;entryDy=0;" parent="1" target="UU7Y9kC62denOVBIXpYy-14" edge="1">
          <mxGeometry relative="1" as="geometry">
            <mxPoint x="275" y="140" as="sourcePoint" />
            <Array as="points">
              <mxPoint x="275" y="140" />
              <mxPoint x="375" y="140" />
              <mxPoint x="375" y="85" />
            </Array>
          </mxGeometry>
        </mxCell>
        <mxCell id="UU7Y9kC62denOVBIXpYy-24" style="edgeStyle=orthogonalEdgeStyle;rounded=0;orthogonalLoop=1;jettySize=auto;html=1;exitX=0.983;exitY=0.543;exitDx=0;exitDy=0;entryX=0;entryY=0.5;entryDx=0;entryDy=0;exitPerimeter=0;" parent="1" source="UU7Y9kC62denOVBIXpYy-3" target="UU7Y9kC62denOVBIXpYy-15" edge="1">
          <mxGeometry relative="1" as="geometry" />
        </mxCell>
        <mxCell id="UU7Y9kC62denOVBIXpYy-25" style="edgeStyle=orthogonalEdgeStyle;rounded=0;orthogonalLoop=1;jettySize=auto;html=1;exitX=0.971;exitY=0.543;exitDx=0;exitDy=0;entryX=0;entryY=0.5;entryDx=0;entryDy=0;exitPerimeter=0;" parent="1" source="UU7Y9kC62denOVBIXpYy-3" target="UU7Y9kC62denOVBIXpYy-17" edge="1">
          <mxGeometry relative="1" as="geometry" />
        </mxCell>
        <mxCell id="UU7Y9kC62denOVBIXpYy-6" value="CRM" style="text;html=1;align=center;verticalAlign=middle;whiteSpace=wrap;rounded=0;" parent="1" vertex="1">
          <mxGeometry x="215" y="166" width="60" height="30" as="geometry" />
        </mxCell>
        <mxCell id="UU7Y9kC62denOVBIXpYy-8" value="&lt;font style=&quot;font-size: 30px;&quot;&gt;Sources&lt;/font&gt;" style="text;html=1;align=center;verticalAlign=middle;whiteSpace=wrap;rounded=0;" parent="1" vertex="1">
          <mxGeometry x="215.5" y="10" width="60" height="30" as="geometry" />
        </mxCell>
        <mxCell id="UU7Y9kC62denOVBIXpYy-12" value="" style="rounded=1;whiteSpace=wrap;html=1;fillColor=none;strokeColor=#d79b00;" parent="1" vertex="1">
          <mxGeometry x="440" y="40" width="200" height="360" as="geometry" />
        </mxCell>
        <mxCell id="UU7Y9kC62denOVBIXpYy-13" value="&lt;font style=&quot;font-size: 30px;&quot;&gt;Bronze Layer&lt;/font&gt;" style="text;html=1;align=center;verticalAlign=middle;whiteSpace=wrap;rounded=0;fillColor=#ffe6cc;strokeColor=#d79b00;" parent="1" vertex="1">
          <mxGeometry x="430" y="10" width="210" height="30" as="geometry" />
        </mxCell>
        <mxCell id="UU7Y9kC62denOVBIXpYy-40" style="edgeStyle=orthogonalEdgeStyle;rounded=0;orthogonalLoop=1;jettySize=auto;html=1;exitX=1;exitY=0.5;exitDx=0;exitDy=0;entryX=0;entryY=0.5;entryDx=0;entryDy=0;" parent="1" source="UU7Y9kC62denOVBIXpYy-14" target="UU7Y9kC62denOVBIXpYy-34" edge="1">
          <mxGeometry relative="1" as="geometry" />
        </mxCell>
        <mxCell id="UU7Y9kC62denOVBIXpYy-14" value="&lt;font style=&quot;font-size: 15px;&quot;&gt;crm_sales_details&lt;/font&gt;" style="rounded=1;whiteSpace=wrap;html=1;fillColor=#ffe6cc;strokeColor=#d79b00;" parent="1" vertex="1">
          <mxGeometry x="475" y="70" width="120" height="30" as="geometry" />
        </mxCell>
        <mxCell id="UU7Y9kC62denOVBIXpYy-41" style="edgeStyle=orthogonalEdgeStyle;rounded=0;orthogonalLoop=1;jettySize=auto;html=1;exitX=1;exitY=0.5;exitDx=0;exitDy=0;entryX=0;entryY=0.5;entryDx=0;entryDy=0;" parent="1" source="UU7Y9kC62denOVBIXpYy-15" target="UU7Y9kC62denOVBIXpYy-35" edge="1">
          <mxGeometry relative="1" as="geometry" />
        </mxCell>
        <mxCell id="UU7Y9kC62denOVBIXpYy-15" value="&lt;font style=&quot;font-size: 15px;&quot;&gt;crm_cust_info&lt;/font&gt;" style="rounded=1;whiteSpace=wrap;html=1;fillColor=#ffe6cc;strokeColor=#d79b00;" parent="1" vertex="1">
          <mxGeometry x="475" y="110" width="120" height="30" as="geometry" />
        </mxCell>
        <mxCell id="UU7Y9kC62denOVBIXpYy-42" style="edgeStyle=orthogonalEdgeStyle;rounded=0;orthogonalLoop=1;jettySize=auto;html=1;exitX=1;exitY=0.5;exitDx=0;exitDy=0;entryX=0;entryY=0.5;entryDx=0;entryDy=0;" parent="1" source="UU7Y9kC62denOVBIXpYy-17" target="UU7Y9kC62denOVBIXpYy-36" edge="1">
          <mxGeometry relative="1" as="geometry" />
        </mxCell>
        <mxCell id="UU7Y9kC62denOVBIXpYy-17" value="&lt;font style=&quot;font-size: 15px;&quot;&gt;crm_prd_info&lt;/font&gt;" style="rounded=1;whiteSpace=wrap;html=1;fillColor=#ffe6cc;strokeColor=#d79b00;" parent="1" vertex="1">
          <mxGeometry x="475" y="160" width="120" height="30" as="geometry" />
        </mxCell>
        <mxCell id="UU7Y9kC62denOVBIXpYy-43" style="edgeStyle=orthogonalEdgeStyle;rounded=0;orthogonalLoop=1;jettySize=auto;html=1;exitX=1;exitY=0.5;exitDx=0;exitDy=0;" parent="1" source="UU7Y9kC62denOVBIXpYy-26" target="UU7Y9kC62denOVBIXpYy-37" edge="1">
          <mxGeometry relative="1" as="geometry" />
        </mxCell>
        <mxCell id="UU7Y9kC62denOVBIXpYy-26" value="&lt;font style=&quot;font-size: 15px;&quot;&gt;erp_cust_az12&lt;/font&gt;" style="rounded=1;whiteSpace=wrap;html=1;fillColor=#ffe6cc;strokeColor=#d79b00;" parent="1" vertex="1">
          <mxGeometry x="475" y="230" width="120" height="30" as="geometry" />
        </mxCell>
        <mxCell id="UU7Y9kC62denOVBIXpYy-44" style="edgeStyle=orthogonalEdgeStyle;rounded=0;orthogonalLoop=1;jettySize=auto;html=1;exitX=1;exitY=0.5;exitDx=0;exitDy=0;entryX=0;entryY=0.5;entryDx=0;entryDy=0;" parent="1" source="UU7Y9kC62denOVBIXpYy-27" target="UU7Y9kC62denOVBIXpYy-38" edge="1">
          <mxGeometry relative="1" as="geometry" />
        </mxCell>
        <mxCell id="UU7Y9kC62denOVBIXpYy-27" value="&lt;font style=&quot;font-size: 15px;&quot;&gt;erp_loc_a101&lt;/font&gt;" style="rounded=1;whiteSpace=wrap;html=1;fillColor=#ffe6cc;strokeColor=#d79b00;" parent="1" vertex="1">
          <mxGeometry x="475" y="280" width="120" height="30" as="geometry" />
        </mxCell>
        <mxCell id="UU7Y9kC62denOVBIXpYy-45" style="edgeStyle=orthogonalEdgeStyle;rounded=0;orthogonalLoop=1;jettySize=auto;html=1;exitX=1;exitY=0.5;exitDx=0;exitDy=0;" parent="1" source="UU7Y9kC62denOVBIXpYy-28" target="UU7Y9kC62denOVBIXpYy-39" edge="1">
          <mxGeometry relative="1" as="geometry" />
        </mxCell>
        <mxCell id="UU7Y9kC62denOVBIXpYy-28" value="&lt;font style=&quot;font-size: 15px;&quot;&gt;erp_px_cat_g1v2&lt;/font&gt;" style="rounded=1;whiteSpace=wrap;html=1;fillColor=#ffe6cc;strokeColor=#d79b00;" parent="1" vertex="1">
          <mxGeometry x="475" y="326" width="120" height="30" as="geometry" />
        </mxCell>
        <mxCell id="UU7Y9kC62denOVBIXpYy-32" value="" style="rounded=1;whiteSpace=wrap;html=1;fillColor=none;strokeColor=#666666;fontColor=#333333;" parent="1" vertex="1">
          <mxGeometry x="700" y="40" width="200" height="360" as="geometry" />
        </mxCell>
        <mxCell id="UU7Y9kC62denOVBIXpYy-33" value="&lt;font style=&quot;font-size: 30px;&quot;&gt;Silver Layer&lt;/font&gt;" style="text;html=1;align=center;verticalAlign=middle;whiteSpace=wrap;rounded=0;fillColor=#f5f5f5;strokeColor=#666666;fontColor=#333333;" parent="1" vertex="1">
          <mxGeometry x="700" y="10" width="200" height="30" as="geometry" />
        </mxCell>
        <mxCell id="DC9sUCy_6D1ObtPZgEsY-9" style="edgeStyle=orthogonalEdgeStyle;rounded=0;orthogonalLoop=1;jettySize=auto;html=1;exitX=1;exitY=0.5;exitDx=0;exitDy=0;entryX=0;entryY=0.5;entryDx=0;entryDy=0;" edge="1" parent="1" source="UU7Y9kC62denOVBIXpYy-34" target="DC9sUCy_6D1ObtPZgEsY-3">
          <mxGeometry relative="1" as="geometry" />
        </mxCell>
        <mxCell id="UU7Y9kC62denOVBIXpYy-34" value="&lt;font style=&quot;font-size: 15px;&quot;&gt;crm_sales_details&lt;/font&gt;" style="rounded=1;whiteSpace=wrap;html=1;fillColor=#f5f5f5;strokeColor=#666666;fontColor=#333333;" parent="1" vertex="1">
          <mxGeometry x="735" y="70" width="120" height="30" as="geometry" />
        </mxCell>
        <mxCell id="DC9sUCy_6D1ObtPZgEsY-10" style="edgeStyle=orthogonalEdgeStyle;rounded=0;orthogonalLoop=1;jettySize=auto;html=1;exitX=1;exitY=0.5;exitDx=0;exitDy=0;entryX=0;entryY=0.5;entryDx=0;entryDy=0;" edge="1" parent="1" source="UU7Y9kC62denOVBIXpYy-35" target="DC9sUCy_6D1ObtPZgEsY-4">
          <mxGeometry relative="1" as="geometry" />
        </mxCell>
        <mxCell id="UU7Y9kC62denOVBIXpYy-35" value="&lt;font style=&quot;font-size: 15px;&quot;&gt;crm_cust_info&lt;/font&gt;" style="rounded=1;whiteSpace=wrap;html=1;fillColor=#f5f5f5;strokeColor=#666666;fontColor=#333333;" parent="1" vertex="1">
          <mxGeometry x="735" y="110" width="120" height="30" as="geometry" />
        </mxCell>
        <mxCell id="UU7Y9kC62denOVBIXpYy-36" value="&lt;font style=&quot;font-size: 15px;&quot;&gt;crm_prd_info&lt;/font&gt;" style="rounded=1;whiteSpace=wrap;html=1;fillColor=#f5f5f5;strokeColor=#666666;fontColor=#333333;" parent="1" vertex="1">
          <mxGeometry x="735" y="160" width="120" height="30" as="geometry" />
        </mxCell>
        <mxCell id="UU7Y9kC62denOVBIXpYy-37" value="&lt;font style=&quot;font-size: 15px;&quot;&gt;erp_cust_az12&lt;/font&gt;" style="rounded=1;whiteSpace=wrap;html=1;fillColor=#f5f5f5;strokeColor=#666666;fontColor=#333333;" parent="1" vertex="1">
          <mxGeometry x="735" y="230" width="120" height="30" as="geometry" />
        </mxCell>
        <mxCell id="UU7Y9kC62denOVBIXpYy-38" value="&lt;font style=&quot;font-size: 15px;&quot;&gt;erp_loc_a101&lt;/font&gt;" style="rounded=1;whiteSpace=wrap;html=1;fillColor=#f5f5f5;strokeColor=#666666;fontColor=#333333;" parent="1" vertex="1">
          <mxGeometry x="735" y="280" width="120" height="30" as="geometry" />
        </mxCell>
        <mxCell id="UU7Y9kC62denOVBIXpYy-39" value="&lt;font style=&quot;font-size: 15px;&quot;&gt;erp_px_cat_g1v2&lt;/font&gt;" style="rounded=1;whiteSpace=wrap;html=1;fillColor=#f5f5f5;strokeColor=#666666;fontColor=#333333;" parent="1" vertex="1">
          <mxGeometry x="735" y="326" width="120" height="30" as="geometry" />
        </mxCell>
        <mxCell id="DC9sUCy_6D1ObtPZgEsY-1" value="" style="rounded=1;whiteSpace=wrap;html=1;fillColor=none;strokeColor=#666666;fontColor=#333333;" vertex="1" parent="1">
          <mxGeometry x="990" y="40" width="200" height="360" as="geometry" />
        </mxCell>
        <mxCell id="DC9sUCy_6D1ObtPZgEsY-2" value="&lt;font style=&quot;font-size: 30px;&quot;&gt;Gold Layer&lt;/font&gt;" style="text;html=1;align=center;verticalAlign=middle;whiteSpace=wrap;rounded=0;fillColor=#f5f5f5;strokeColor=#666666;fontColor=#333333;" vertex="1" parent="1">
          <mxGeometry x="990" y="10" width="200" height="30" as="geometry" />
        </mxCell>
        <mxCell id="DC9sUCy_6D1ObtPZgEsY-3" value="&lt;font style=&quot;font-size: 15px;&quot;&gt;fact_sales&lt;/font&gt;" style="rounded=1;whiteSpace=wrap;html=1;fillColor=#f5f5f5;strokeColor=#666666;fontColor=#333333;" vertex="1" parent="1">
          <mxGeometry x="1030" y="110" width="120" height="30" as="geometry" />
        </mxCell>
        <mxCell id="DC9sUCy_6D1ObtPZgEsY-4" value="&lt;font style=&quot;font-size: 15px;&quot;&gt;dim_customers&lt;/font&gt;" style="rounded=1;whiteSpace=wrap;html=1;fillColor=#f5f5f5;strokeColor=#666666;fontColor=#333333;" vertex="1" parent="1">
          <mxGeometry x="1030" y="200" width="120" height="30" as="geometry" />
        </mxCell>
        <mxCell id="DC9sUCy_6D1ObtPZgEsY-5" value="&lt;font style=&quot;font-size: 15px;&quot;&gt;dim_products&lt;/font&gt;" style="rounded=1;whiteSpace=wrap;html=1;fillColor=#f5f5f5;strokeColor=#666666;fontColor=#333333;" vertex="1" parent="1">
          <mxGeometry x="1030" y="296" width="120" height="30" as="geometry" />
        </mxCell>
        <mxCell id="DC9sUCy_6D1ObtPZgEsY-13" value="" style="endArrow=classic;html=1;rounded=0;entryX=0;entryY=0.5;entryDx=0;entryDy=0;exitX=1;exitY=0.5;exitDx=0;exitDy=0;" edge="1" parent="1" source="UU7Y9kC62denOVBIXpYy-37" target="DC9sUCy_6D1ObtPZgEsY-4">
          <mxGeometry width="50" height="50" relative="1" as="geometry">
            <mxPoint x="920" y="300" as="sourcePoint" />
            <mxPoint x="970" y="250" as="targetPoint" />
          </mxGeometry>
        </mxCell>
        <mxCell id="DC9sUCy_6D1ObtPZgEsY-14" value="" style="endArrow=classic;html=1;rounded=0;exitX=1;exitY=0.5;exitDx=0;exitDy=0;" edge="1" parent="1" source="UU7Y9kC62denOVBIXpYy-38">
          <mxGeometry width="50" height="50" relative="1" as="geometry">
            <mxPoint x="865" y="255" as="sourcePoint" />
            <mxPoint x="1030" y="220" as="targetPoint" />
          </mxGeometry>
        </mxCell>
        <mxCell id="DC9sUCy_6D1ObtPZgEsY-15" value="" style="endArrow=classic;html=1;rounded=0;exitX=1;exitY=0.5;exitDx=0;exitDy=0;entryX=0;entryY=0.5;entryDx=0;entryDy=0;" edge="1" parent="1" source="UU7Y9kC62denOVBIXpYy-39" target="DC9sUCy_6D1ObtPZgEsY-5">
          <mxGeometry width="50" height="50" relative="1" as="geometry">
            <mxPoint x="865" y="305" as="sourcePoint" />
            <mxPoint x="1040" y="230" as="targetPoint" />
          </mxGeometry>
        </mxCell>
        <mxCell id="DC9sUCy_6D1ObtPZgEsY-16" value="" style="endArrow=classic;html=1;rounded=0;exitX=1;exitY=0.5;exitDx=0;exitDy=0;entryX=0;entryY=0.5;entryDx=0;entryDy=0;jumpStyle=gap;" edge="1" parent="1" source="UU7Y9kC62denOVBIXpYy-36" target="DC9sUCy_6D1ObtPZgEsY-5">
          <mxGeometry width="50" height="50" relative="1" as="geometry">
            <mxPoint x="865" y="351" as="sourcePoint" />
            <mxPoint x="1040" y="321" as="targetPoint" />
          </mxGeometry>
        </mxCell>
      </root>
    </mxGraphModel>
  </diagram>
</mxfile>
